<svg id="visual" viewBox="0 0 675 900" width="675" height="900" xmlns="http://www.w3.org/2000/svg" xmlns:xlink="http://www.w3.org/1999/xlink" version="1.1"><rect x="0" y="0" width="675" height="900" fill="#001220"></rect><path d="M0 526L16 537C32 548 64 570 96.2 580C128.3 590 160.7 588 192.8 579.5C225 571 257 556 289.2 560.8C321.3 565.7 353.7 590.3 385.8 611.7C418 633 450 651 482.2 643.2C514.3 635.3 546.7 601.7 578.8 591.3C611 581 643 594 659 600.5L675 607L675 901L659 901C643 901 611 901 578.8 901C546.7 901 514.3 901 482.2 901C450 901 418 901 385.8 901C353.7 901 321.3 901 289.2 901C257 901 225 901 192.8 901C160.7 901 128.3 901 96.2 901C64 901 32 901 16 901L0 901Z" fill="#ff6f61"></path><path d="M0 622L16 633.3C32 644.7 64 667.3 96.2 682.8C128.3 698.3 160.7 706.7 192.8 710.3C225 714 257 713 289.2 694C321.3 675 353.7 638 385.8 630C418 622 450 643 482.2 649.3C514.3 655.7 546.7 647.3 578.8 648.7C611 650 643 661 659 666.5L675 672L675 901L659 901C643 901 611 901 578.8 901C546.7 901 514.3 901 482.2 901C450 901 418 901 385.8 901C353.7 901 321.3 901 289.2 901C257 901 225 901 192.8 901C160.7 901 128.3 901 96.2 901C64 901 32 901 16 901L0 901Z" fill="#ff7e55"></path><path d="M0 742L16 734C32 726 64 710 96.2 698.5C128.3 687 160.7 680 192.8 678.3C225 676.7 257 680.3 289.2 692.3C321.3 704.3 353.7 724.7 385.8 722.7C418 720.7 450 696.3 482.2 683.3C514.3 670.3 546.7 668.7 578.8 680.7C611 692.7 643 718.3 659 731.2L675 744L675 901L659 901C643 901 611 901 578.8 901C546.7 901 514.3 901 482.2 901C450 901 418 901 385.8 901C353.7 901 321.3 901 289.2 901C257 901 225 901 192.8 901C160.7 901 128.3 901 96.2 901C64 901 32 901 16 901L0 901Z" fill="#ff8e4b"></path><path d="M0 729L16 732C32 735 64 741 96.2 743.8C128.3 746.7 160.7 746.3 192.8 752.7C225 759 257 772 289.2 776.2C321.3 780.3 353.7 775.7 385.8 780.3C418 785 450 799 482.2 792.5C514.3 786 546.7 759 578.8 746.7C611 734.3 643 736.7 659 737.8L675 739L675 901L659 901C643 901 611 901 578.8 901C546.7 901 514.3 901 482.2 901C450 901 418 901 385.8 901C353.7 901 321.3 901 289.2 901C257 901 225 901 192.8 901C160.7 901 128.3 901 96.2 901C64 901 32 901 16 901L0 901Z" fill="#ff9e43"></path><path d="M0 797L16 801C32 805 64 813 96.2 823.5C128.3 834 160.7 847 192.8 852.7C225 858.3 257 856.7 289.2 851.7C321.3 846.7 353.7 838.3 385.8 836.8C418 835.3 450 840.7 482.2 839C514.3 837.3 546.7 828.7 578.8 825.2C611 821.7 643 823.3 659 824.2L675 825L675 901L659 901C643 901 611 901 578.8 901C546.7 901 514.3 901 482.2 901C450 901 418 901 385.8 901C353.7 901 321.3 901 289.2 901C257 901 225 901 192.8 901C160.7 901 128.3 901 96.2 901C64 901 32 901 16 901L0 901Z" fill="#fcaf3c"></path></svg>